<?xml version="1.0" encoding="UTF-8"?>
<svg width="166px" height="393px" viewBox="0 0 166 393" version="1.1" xmlns="http://www.w3.org/2000/svg" xmlns:xlink="http://www.w3.org/1999/xlink">
    <!-- Generator: Sketch 52.6 (67491) - http://www.bohemiancoding.com/sketch -->
    <title>Group 2</title>
    <desc>Created with Sketch.</desc>
    <defs>
        <path d="M163.991719,0 C165.289504,3.41858292 166,7.1263188 166,11 L166,98 C166,115.120827 152.120827,129 135,129 L31,129 C13.8791728,129 2.09669663e-15,115.120827 0,98 L0,11 C-4.74389128e-16,7.1263188 0.710496336,3.41858292 2.00828135,-1.91233696e-11 L163.991719,0 Z" id="path-1"></path>
        <path d="M137.65782,-1.82076576e-14 C139.79009,4.20535239 140.991719,8.96234847 140.991719,14 L140.991719,63.0421017 C150.661354,65.6176799 158.472061,72.7504471 161.983437,82 L-1.42108547e-14,82 C3.51137634,72.7504471 11.3220836,65.6176799 20.9917187,63.0421017 L20.9917187,14 C20.9917187,8.96234847 22.1933475,4.20535239 24.3256169,-1.77635684e-14 L137.657825,2.13162821e-14 Z" id="path-3"></path>
        <path d="M113.666106,96 L0.333893949,96 C4.72782032,87.33412 13.0736114,81.0107379 23,79.4011253 L23,31 C23,13.8791728 36.8791728,-4.07668736e-16 54,-3.55271368e-15 L60,-3.55271368e-15 C77.1208272,-6.69775862e-15 91,13.8791728 91,31 L91,79.4011253 C100.926389,81.0107379 109.27218,87.33412 113.666102,96 Z" id="path-5"></path>
    </defs>
    <g id="Page-1" stroke="none" stroke-width="1" fill="none" fill-rule="evenodd">
        <g id="Group-2">
            <g id="handle" transform="translate(65.000000, 242.000000)" fill-rule="nonzero">
                <rect id="Rectangle" fill="#C06C50" x="1" y="2" width="32" height="149" rx="16"></rect>
                <rect id="Rectangle" fill="#E3A28D" x="0" y="0" width="32" height="149" rx="16"></rect>
                <rect id="Rectangle" fill-opacity="0.181584013" fill="#8C0040" x="0" y="62" width="33" height="44"></rect>
                <rect id="Rectangle-Copy-3" fill-opacity="0.181584013" fill="#8C0040" x="0" y="62" width="33" height="13"></rect>
            </g>
            <g id="bottom-third" transform="translate(0.000000, 178.000000)">
                <mask id="mask-2" fill="white">
                    <use xlink:href="#path-1"></use>
                </mask>
                <use id="Mask" fill="#F8C184" fill-rule="nonzero" xlink:href="#path-1"></use>
                <path d="M125.991719,1.90993887e-11 C127.289504,3.41858292 128,7.1263188 128,11 L128,98 C128,115.120827 114.120827,129 97,129 L-7,129 C-24.1208272,129 -38,115.120827 -38,98 L-38,11 C-38,7.1263188 -37.2895037,3.41858292 -35.9917187,-2.39808173e-14 L125.991719,1.90993887e-11 Z" id="Combined-Shape-Copy-3" fill="#D0021B" fill-rule="nonzero" opacity="0.0834030878" mask="url(#mask-2)"></path>
                <path d="M149.991719,1.90993887e-11 C151.289504,3.41858292 152,7.1263188 152,11 L152,98 C152,115.120827 138.120827,129 121,129 L17,129 C-0.120827245,129 -14,115.120827 -14,98 L-14,11 C-14,7.1263188 -13.2895037,3.41858292 -11.9917187,-2.39808173e-14 L149.991719,1.90993887e-11 Z" id="Combined-Shape" fill="#D0021B" fill-rule="nonzero" opacity="0.0834030878" mask="url(#mask-2)"></path>
            </g>
            <g id="middle-third" transform="translate(2.000000, 96.000000)">
                <mask id="mask-4" fill="white">
                    <use xlink:href="#path-3"></use>
                </mask>
                <use id="Combined-Shape" fill="#FF9966" fill-rule="nonzero" xlink:href="#path-3"></use>
                <path d="M123.65782,-1.82076576e-14 C125.79009,4.20535239 126.991719,8.96234847 126.991719,14 L126.991719,63.0421017 C136.661354,65.6176799 144.472061,72.7504471 147.983437,82 L-14,82 C-10.4886237,72.7504471 -2.67791638,65.6176799 6.99171865,63.0421017 L6.99171865,14 C6.99171865,8.96234847 8.19334748,4.20535239 10.3256169,-1.77635684e-14 L123.657825,2.13162821e-14 Z" id="Combined-Shape" fill="#D0021B" fill-rule="nonzero" opacity="0.133998326" mask="url(#mask-4)"></path>
                <path d="M99.6578204,-1.82076576e-14 C101.79009,4.20535239 102.991719,8.96234847 102.991719,14 L102.991719,63.0421017 C112.661354,65.6176799 120.472061,72.7504471 123.983437,82 L-38,82 C-34.4886237,72.7504471 -26.6779164,65.6176799 -17.0082813,63.0421017 L-17.0082813,14 C-17.0082813,8.96234847 -15.8066525,4.20535239 -13.6743831,-1.77635684e-14 L99.6578247,2.13162821e-14 Z" id="Combined-Shape" fill="#D0021B" fill-rule="nonzero" opacity="0.133998326" mask="url(#mask-4)"></path>
            </g>
            <g id="top-third" transform="translate(26.000000, 0.000000)">
                <mask id="mask-6" fill="white">
                    <use xlink:href="#path-5"></use>
                </mask>
                <use id="Mask" fill="#D00267" fill-rule="nonzero" xlink:href="#path-5"></use>
                <path d="M99.3322121,96 L-14,96 C-9.60607363,87.33412 -1.26028253,81.0107379 8.66610605,79.4011253 L8.66610605,31 C8.66610605,13.8791728 22.5452788,-4.07668736e-16 39.6661061,-3.55271368e-15 L45.6661061,-3.55271368e-15 C62.7869333,-6.69775862e-15 76.6661061,13.8791728 76.6661061,31 L76.6661061,79.4011253 C86.5924946,81.0107379 94.9382857,87.33412 99.3322078,96 Z" id="Combined-Shape" fill="#000000" fill-rule="nonzero" opacity="0.140718006" mask="url(#mask-6)"></path>
                <path d="M8.66610605,0.793596414 C10.9156395,0.274388642 13.2588293,-3.11050412e-15 15.6661061,-3.55271368e-15 L21.6661061,-3.55271368e-15 C38.7869333,-6.69775862e-15 52.6661061,13.8791728 52.6661061,31 L52.6661061,79.4011253 C67.4095429,81.7918459 78.6661061,94.5813674 78.6661061,110 L78.6661061,159.042102 C91.909584,162.569599 101.666106,174.645421 101.666106,189 L101.666106,276 C101.666106,293.120827 87.7869333,307 70.6661061,307 L50.6661061,307 L-53.3338939,307 C-70.4547212,307 -84.3338939,293.120827 -84.3338939,276 L-84.3338939,189 C-84.3338939,174.645421 -74.5773719,162.569599 -61.3338939,159.042102 L-61.3338939,110 C-61.3338939,94.5813674 -50.0773308,81.7918459 -35.3338939,79.4011253 L-35.3338939,31 C-35.3338939,13.8791728 -21.4547212,-4.07668736e-16 -4.33389395,-3.55271368e-15 L1.66610605,-3.55271368e-15 C4.07338279,-3.99492324e-15 6.41657263,0.274388642 8.66610605,0.793596414 Z" id="Combined-Shape" fill="#000000" fill-rule="nonzero" opacity="0.140718006" mask="url(#mask-6)"></path>
            </g>
        </g>
    </g>
</svg>
