<?xml version="1.0" encoding="UTF-8"?>
<svg width="263px" height="384px" viewBox="0 0 263 384" version="1.1" xmlns="http://www.w3.org/2000/svg" xmlns:xlink="http://www.w3.org/1999/xlink">
  <defs>
    <ellipse id="path-1" cx="119.5" cy="15.5" rx="119.5" ry="15.5"></ellipse>
    <ellipse id="path-3" cx="20" cy="4.5" rx="20" ry="4.5"></ellipse>
  </defs>
  <g id="Page-2" stroke="none" stroke-width="1" fill="none" fill-rule="evenodd">
    <g id="metled">
      <g id="handle" transform="translate(103.000000, 0.000000)" fill-rule="nonzero">
        <rect id="Rectangle" fill="#C06C50" x="0" y="2" width="32" height="292" rx="16"></rect>
        <rect id="Rectangle" fill="#E3A28D" x="0" y="0" width="32" height="292" rx="16"></rect>
      </g>
      <g id="Rectangle" transform="translate(0.000000, 351.000000)">
        <mask id="mask-2" fill="white">
          <use xlink:href="#path-1"></use>
        </mask>
        <use id="Mask" fill="#000000" fill-rule="nonzero" opacity="0.193917411" xlink:href="#path-1"></use>
        <path d="M104,18.8181818 L109,17 L104,17 L104,-31 L136,-31 L136,48 L104,48 L104,21 L98,21 L104,18.8181818 Z" id="Combined-Shape" fill="#000000" fill-rule="nonzero" opacity="0.129580543" mask="url(#mask-2)"></path>
     </g>
      <g id="Rectangle" transform="translate(223.000000, 375.000000)">
        <mask id="mask-4" fill="white">
          <use xlink:href="#path-3"></use>
        </mask>
        <use id="Mask" fill="#000000" fill-rule="nonzero" opacity="0.193917411" xlink:href="#path-3"></use>
      </g>
      <text id="Knock-knock.-Who's-t" opacity="0.614164807" transform="translate(119.000000, 110.500000) rotate(-90.000000) translate(-119.000000, -110.500000) " font-family="Arial-BoldMT, Arial" font-size="11" font-weight="bold" fill="#FABAA5">
        <tspan x="34.864502" y="114.5">Knock knock. Who's there? 404. </tspan>
      </text>
      <text id="Knock-knock.-Who's-t" opacity="0.472330729" transform="translate(119.000000, 111.500000) rotate(-90.000000) translate(-119.000000, -111.500000) " font-family="Arial-BoldMT, Arial" font-size="11" font-weight="bold" fill="#C06C50">
        <tspan x="34.864502" y="115.5">Knock knock. Who's there? 404. </tspan>
      </text>
    </g>
  </g>
</svg>
